<svg xmlns="http://www.w3.org/2000/svg" viewBox="0 0 307.95 307"><defs><style>.cls-1{fill:#fc0;isolation:isolate;}.cls-2{fill:#112152;}.cls-3,.cls-4{fill:none;}.cls-3{stroke:#112152;stroke-linecap:round;stroke-linejoin:round;stroke-width:10px;}</style></defs><g id="Layer_2" data-name="Layer 2"><g id="Layer_1-2" data-name="Layer 1"><path class="cls-1" d="M63.39,146.83H37.92A8.82,8.82,0,0,1,29.1,138v-7.08a8.82,8.82,0,0,1,8.82-8.82H91.5a8.82,8.82,0,0,1,8.82,8.82v10.88a8.81,8.81,0,0,1-2.12,5.73l-59.74,68H77.82a8.82,8.82,0,0,1,8.82,8.82v7.09a8.82,8.82,0,0,1-8.82,8.82H10.35a8.82,8.82,0,0,1-8.82-8.82V220.53a8.87,8.87,0,0,1,2.12-5.74Z"/><path class="cls-2" d="M109.65,240h-2a10.59,10.59,0,0,1-10.42-12.45l13.86-77.39a10.59,10.59,0,0,1,10.42-8.72h2a10.6,10.6,0,0,1,10.42,12.46l-13.86,77.38A10.58,10.58,0,0,1,109.65,240Z"/><path class="cls-2" d="M161.69,181.34,154,232.5a8.82,8.82,0,0,1-8.72,7.5h-5.09a8.81,8.81,0,0,1-8.68-10.37L146,148.71a8.83,8.83,0,0,1,8.68-7.27h9.41a8.83,8.83,0,0,1,8.4,6.13l16.88,52.54L197.05,149a8.83,8.83,0,0,1,8.72-7.51h5.09a8.82,8.82,0,0,1,8.68,10.38l-13.7,76.56A14.11,14.11,0,0,1,191.94,240h-5a8.81,8.81,0,0,1-8.4-6.12Z"/><path class="cls-2" d="M282,56.77H239.16a10,10,0,0,0-9.46,6.76l-20,58.24H215a2.57,2.57,0,0,1,.23-.6c1.52-2.59,4-4,6.25-5.92,1.31-1.12,2.25-2.63,3.56-3.48h-1.34l15.43-45H282v55h10v-55A10,10,0,0,0,282,56.77Z"/><path class="cls-1" d="M305.47,147.24v-40a10,10,0,0,0-10-10H130.08a10,10,0,0,0-9.68,7.5l-7.33,28.38L279.44,132C293.59,132,305.47,147.24,305.47,147.24Z"/><path class="cls-2" d="M239.2,141.44h45.16A8.82,8.82,0,0,1,293,151.87l-.25,1.38a8.83,8.83,0,0,1-8.68,7.21H250L246.46,180h27a8.82,8.82,0,0,1,8.68,10.43l-.26,1.38a8.81,8.81,0,0,1-8.67,7.21H241.17l-3.53,22h32.69A8.83,8.83,0,0,1,279,231.41l-.26,1.38a8.81,8.81,0,0,1-8.67,7.21H224.71A8.81,8.81,0,0,1,216,229.63l14.49-80.92A8.83,8.83,0,0,1,239.2,141.44Z"/><path class="cls-3" d="M109,131.77H284c10.45,0,19,7.65,19,17"/><rect class="cls-4" width="307" height="307"/></g></g></svg>