<svg xmlns="http://www.w3.org/2000/svg" xmlns:xlink="http://www.w3.org/1999/xlink" viewBox="0 0 912.88 913"><defs><style>.cls-1{fill:none;}.cls-2{fill:#a25d57;}.cls-3{fill:#b56963;}.cls-4{fill:url(#New_Pattern);}</style><pattern id="New_Pattern" data-name="New Pattern" width="226" height="182" patternUnits="userSpaceOnUse" viewBox="0 0 226 182"><rect class="cls-1" width="226" height="182"/><path class="cls-2" d="M339,136.5v91H113v-91Zm-5,5H118v81H334Z"/><rect class="cls-3" x="118" y="141.5" width="216" height="81"/><path class="cls-2" d="M113,136.5v91H-113v-91Zm-5,5H-108v81H108Z"/><rect class="cls-3" x="-108" y="141.5" width="216" height="81"/><path class="cls-2" d="M226,45.5v91H0v-91Zm-5,5H5v81H221Z"/><rect class="cls-3" x="5" y="50.5" width="216" height="81"/><path class="cls-2" d="M339-45.5v91H113v-91Zm-5,5H118v81H334Z"/><rect class="cls-3" x="118" y="-40.5" width="216" height="81"/><path class="cls-2" d="M113-45.5v91H-113v-91Zm-5,5H-108v81H108Z"/><rect class="cls-3" x="-108" y="-40.5" width="216" height="81"/></pattern></defs><title>brick_pattern_1</title><g id="Layer_2" data-name="Layer 2"><g id="Layer_1-2" data-name="Layer 1"><rect class="cls-4" width="912.88" height="913"/></g></g></svg>