<svg xmlns="http://www.w3.org/2000/svg" xmlns:xlink="http://www.w3.org/1999/xlink" viewBox="0 0 99.19 245"><defs><style>.cls-1{fill:url(#linear-gradient);}.cls-2{fill:#e5ddd1;}</style><linearGradient id="linear-gradient" x1="-2996.4" y1="-108" x2="-2996.4" y2="-348.39" gradientTransform="translate(-2946.81 -108) rotate(180)" gradientUnits="userSpaceOnUse"><stop offset="0" stop-color="#9d887f"/><stop offset="0.1" stop-color="#8e7b73"/><stop offset="0.3" stop-color="#685b55"/><stop offset="0.57" stop-color="#2a2624"/><stop offset="0.71" stop-color="#090909"/></linearGradient></defs><title>cat_foot</title><g id="Layer_2" data-name="Layer 2"><g id="Layer_1-2" data-name="Layer 1"><path class="cls-1" d="M0,197.11a23.2,23.2,0,0,0,12.63,20.65c.64.92,1.32,1.82,2,2.7a23.19,23.19,0,0,0,35,16.58h.19a23.2,23.2,0,0,0,35.07-17.35c.44-.57.87-1.15,1.28-1.74a23.2,23.2,0,0,0,8.13-35.09V0H4.64V183.19A23.13,23.13,0,0,0,0,197.11Z"/><path class="cls-2" d="M63.7,240.31c1.85,3.56,5.29,5.5,8,4.37s3.71-4.5,2.84-8.11A23.06,23.06,0,0,1,63.7,240.31Z"/><path class="cls-2" d="M24.87,236.57c-.87,3.61.24,7,2.84,8.11s6.19-.81,8-4.37A23.06,23.06,0,0,1,24.87,236.57Z"/><path class="cls-2" d="M88.17,216.84c3,2.25,6.65,2.56,8.64.56s1.68-5.76-.67-8.79A23.27,23.27,0,0,1,88.17,216.84Z"/><path class="cls-2" d="M3.16,208.8c-2.21,3-2.51,6.62-.53,8.6s5.55,1.69,8.53-.47A23.24,23.24,0,0,1,3.16,208.8Z"/></g></g></svg>