<svg xmlns="http://www.w3.org/2000/svg" viewBox="0 0 487.5 915"><defs><style>.cls-1{fill:#a0674a;}.cls-2{fill:#935a3b;}</style></defs><title>Asset 13</title><g id="Layer_2" data-name="Layer 2"><g id="Layer_1-2" data-name="Layer 1"><path class="cls-1" d="M0,0V915H487.5V0ZM81.47,63.5h149V265h-149ZM37,558.5a32,32,0,1,1,32-32A32,32,0,0,1,37,558.5Zm44.47-262h149v198h-149ZM333.23,828h-179V681.5h179ZM412.5,494.5h-149v-198h149Zm0-229.5h-149V63.5h149Z"/><polygon class="cls-2" points="81 506.5 81 518.5 434 518.5 434 506.5 422 506.5 81 506.5"/><polyline class="cls-2" points="127.5 682 360 682 372 682 372 670 115.5 670 115.5 682 127.5 682"/><rect class="cls-2" x="81" y="284.5" width="149" height="11.81"/><rect class="cls-2" x="263" y="284.5" width="149" height="11.81"/><rect class="cls-2" x="81" y="51.5" width="149" height="11.81"/><rect class="cls-2" x="263" y="51.5" width="149" height="11.81"/><rect class="cls-2" x="422" y="51.5" width="12" height="455"/><polygon class="cls-2" points="81 63.5 81 63.31 81 51.5 69 51.5 69 264.5 81 264.5 81 63.5"/><polygon class="cls-2" points="81 296.5 81 296.31 81 284.5 69 284.5 69 497.5 81 497.5 81 296.5"/><polygon class="cls-2" points="263 63.5 263 63.31 263 51.5 251 51.5 251 264.5 263 264.5 263 63.5"/><polygon class="cls-2" points="263 296.5 263 296.31 263 284.5 251 284.5 251 497.5 263 497.5 263 296.5"/></g></g></svg>