<svg xmlns="http://www.w3.org/2000/svg" viewBox="0 0 713 1112"><defs><style>.cls-1{fill:#8ac4d0;}.cls-2{fill:#f1e1c7;}.cls-3{fill:#fff6e4;}.cls-4{fill:#cab6a4;}.cls-5{fill:#fff3e1;}.cls-6{fill:#a3a3a3;}.cls-7{fill:#c4c4c4;}</style></defs><title>door_frame</title><g id="Layer_2" data-name="Layer 2"><g id="Layer_1-2" data-name="Layer 1"><rect class="cls-1" x="103.75" y="133" width="514" height="925"/><rect class="cls-2" x="10.75" width="691.5" height="48"/><polygon class="cls-3" points="42.25 48.5 42.25 1048.5 65.25 1048.5 65.25 85.5 647.75 85.5 647.75 104.51 647.75 1048.5 670.75 1048.5 670.75 48.5 42.25 48.5"/><polygon class="cls-4" points="647.75 104.51 647.75 85.5 65.25 85.5 65.25 1048.5 76.75 1048.5 76.75 104.51 647.75 104.51"/><polygon class="cls-2" points="76.75 104.51 76.75 1048.5 95.25 1048.5 95.25 116.5 617.75 116.5 628.75 116.5 628.75 1048.5 647.75 1048.5 647.75 104.51 76.75 104.51"/><rect class="cls-4" x="617.75" y="116.5" width="11" height="932"/><polygon class="cls-5" points="95.25 116.5 95.25 1048.5 112.75 1048.5 112.75 133.5 600.25 133.5 600.25 1048.5 617.75 1048.5 617.75 116.5 95.25 116.5"/><rect class="cls-6" y="1048" width="713" height="64"/><rect class="cls-7" y="1048" width="713" height="20"/></g></g></svg>