<svg xmlns="http://www.w3.org/2000/svg" viewBox="0 0 1280 893"><defs><style>.cls-1{fill:#dbd8cc;}.cls-2{fill:none;}.cls-3{fill:#b7b3a7;}.cls-4{fill:#a39d8d;}.cls-5{fill:#f8f8f8;}</style></defs><title>letter</title><g id="Layer_2" data-name="Layer 2"><g id="Layer_1-2" data-name="Layer 1"><path class="cls-1" d="M973.6,285.35q-82.77,61.44-165.52,122.89c-3.14,2.34-7,3.76-9.45,7-10.56,7.33-20.52,15.47-31,22.84-2.34,1.65-5,2.76-7.2,4.6-28,29.25-62.82,45-102.5,49.36-48.9,5.37-93-7.61-131.51-38.56-4.06-3.26-7.35-7.35-11.07-11-13.72-8.68-26.37-18.81-39.09-28.85C420.15,373,365.08,331,309.52,289.66s-110.7-82.69-166.08-124Q80.65,118.84,17.91,72c-1-.77-2-1.55-3.06-2.33A129.4,129.4,0,0,0,0,130V763A130,130,0,0,0,130,893H1150a130,130,0,0,0,130-130V130a129.33,129.33,0,0,0-15.07-60.78c-29.88,22-59.64,44.24-89.46,66.35Q1074.51,210.42,973.6,285.35Z"/><path class="cls-2" d="M740.89,455.1c-29.18-23.44-62.09-35.33-97.82-35.33a175.44,175.44,0,0,0-19,1.06c-32.51,3.56-60.32,15.7-82.84,36.12C580.51,477.89,618.73,492,651,492c26.69,0,59.5-13.08,94.1-32.8A46.1,46.1,0,0,0,740.89,455.1Z"/><path class="cls-3" d="M970.26,603.34C914.7,562,859.63,520,803.57,479.33c-4.38-3.46-8.76-6.93-13.18-10.35q-9,5.92-17.91,11.48c5.45,4.11,10.9,8.4,16.49,12.82l2.53,2,.33.24c37.49,27.2,75.22,55.5,111.71,82.88,17.93,13.45,36.47,27.36,54.78,41,32.48,24.18,65.46,48.83,97.36,72.67,22.9,17.11,207.26,135,207.26,135S1025.68,644.59,970.26,603.34Z"/><path class="cls-3" d="M481.15,477.75c-2.47,3.25-6.31,4.67-9.45,7Q389.08,546.4,306.18,607.65C238.9,657.59,15.52,825,15.52,825s233.05-149.69,299.21-198.8l3.37-2.5,52.63-39c37-27.45,75.33-55.84,112.93-83.88.26-.2,1.08-.69,1.68-1.05a42.93,42.93,0,0,0,9.22-7c5-3.56,9.89-7.23,14.6-10.79l5-3.79q-9.24-5.37-18.54-11.08C490.87,470.73,486.08,474.33,481.15,477.75Z"/><path class="cls-3" d="M790.39,469c88.53-58.25,182.1-141.94,220.78-170.65,72.46-53.79,171.61-165.57,245.94-223.33q-40.89,30.19-81.64,60.57-101,74.85-201.87,149.78c-37.06,27.51-127,111.3-210.89,163.35.58.6,1.17,1.2,1.76,1.78C773.47,456.17,782,462.48,790.39,469Z"/><path class="cls-3" d="M752,466.26l-1.5-1.46c-1.64-1.6-3.1-3.15-4.5-4.64l-.91-1C710.5,478.92,677.69,492,651,492c-32.27,0-70.49-14.11-109.76-35.05q-3.79,3.44-7.39,7.19l-.79.82-.88.73a47,47,0,0,1-6.95,4.67c-.55.32-1.3.75-1.55.92-3.18,2.23-6.3,4.53-9.48,6.92C565.27,507.85,614.3,529,651,529c32.25,0,75.61-20,121.48-48.54-6.15-4.64-12.31-9-18.69-13.08Z"/><path class="cls-3" d="M519.4,450.31q1.74-1.81,3.53-3.56c-87.74-50.86-176.85-129.88-213.41-157.09q-83.13-61.88-166.08-124Q81.88,119.76,20.35,73.78C83,121.55,209.29,257.7,270.34,303.14c38.16,28.39,133,107.42,225.32,164,5.47-4.13,10.92-8.28,16.54-12.21C514.54,453.26,517.19,452.15,519.4,450.31Z"/><path class="cls-4" d="M764.47,450.48c-.59-.58-1.18-1.18-1.76-1.78q-8.85,5.51-17.61,10.5l.91,1c1.4,1.49,2.86,3,4.5,4.64l1.5,1.46,1.78,1.12c6.38,4,12.54,8.44,18.69,13.08q8.89-5.54,17.91-11.48C782,462.48,773.47,456.17,764.47,450.48Z"/><path class="cls-4" d="M525.23,470.36a47,47,0,0,0,6.95-4.67l.88-.73.79-.82q3.58-3.75,7.39-7.19c-6.08-3.25-12.2-6.66-18.31-10.2q-1.78,1.74-3.53,3.56c-2.21,1.84-4.86,2.95-7.2,4.6-5.62,3.93-11.07,8.08-16.54,12.21q9.3,5.7,18.54,11.08c3.18-2.39,6.3-4.69,9.48-6.92C523.93,471.11,524.68,470.68,525.23,470.36Z"/><path class="cls-5" d="M1150,0H130A130,130,0,0,0,14.85,69.63c1,.78,2,1.56,3.06,2.33q62.76,46.86,125.53,93.71C198.82,207,472,492.05,657.88,492.05c120.12,0,450.28-306.58,517.59-356.48,29.82-22.11,59.58-44.33,89.46-66.35A130,130,0,0,0,1150,0Z"/></g></g></svg>